<svg width="38" height="38" viewBox="0 0 38 38" fill="none" xmlns="http://www.w3.org/2000/svg">
<path d="M19 35.625C15.7119 35.625 12.4976 34.65 9.76365 32.8232C7.02968 30.9964 4.89882 28.3999 3.64051 25.3621C2.3822 22.3243 2.05297 18.9816 2.69445 15.7566C3.33593 12.5317 4.91931 9.5694 7.24436 7.24436C9.5694 4.91931 12.5317 3.33593 15.7566 2.69445C18.9816 2.05297 22.3243 2.3822 25.3621 3.64051C28.3999 4.89882 30.9964 7.02968 32.8232 9.76365C34.65 12.4976 35.625 15.7119 35.625 19C35.625 23.4092 33.8734 27.6379 30.7557 30.7557C27.6379 33.8734 23.4092 35.625 19 35.625ZM19 4.75001C16.1816 4.75001 13.4265 5.58576 11.0831 7.15157C8.73973 8.71738 6.91327 10.9429 5.83472 13.5468C4.75618 16.1506 4.47398 19.0158 5.02382 21.78C5.57366 24.5443 6.93084 27.0834 8.92374 29.0763C10.9166 31.0692 13.4557 32.4264 16.22 32.9762C18.9842 33.526 21.8494 33.2438 24.4532 32.1653C27.0571 31.0867 29.2826 29.2603 30.8484 26.9169C32.4143 24.5735 33.25 21.8184 33.25 19C33.25 15.2207 31.7487 11.5961 29.0763 8.92374C26.4039 6.25134 22.7793 4.75001 19 4.75001Z" fill="#4B3015"/>
<path d="M24.4506 26.125L17.8125 19.4869V8.3125H20.1875V18.5013L26.125 24.4506L24.4506 26.125Z" fill="#4B3015"/>
</svg>
