<svg width="34" height="20" viewBox="0 0 34 20" fill="none" xmlns="http://www.w3.org/2000/svg">
<path d="M16.5471 14.8027C15.8971 15.8243 15.2735 16.8238 13.8761 17.7947C13.1286 18.3186 11.4082 19.3423 8.96272 19.3423C4.29708 19.3423 0.53125 15.9503 0.53125 9.98677C0.53125 4.77481 4.07369 0.657623 9.0622 0.657623C11.0832 0.657623 12.8788 1.35628 14.2012 2.40437C15.424 3.37722 15.9967 4.35034 16.4964 5.22372L13.0047 6.96841C12.7549 6.39559 12.4542 5.7964 11.6824 5.14848C10.8334 4.47412 9.98637 4.2751 9.26122 4.2751C6.41763 4.2751 4.92064 6.91973 4.92064 9.86286C4.92064 13.7302 6.8929 15.6497 9.26122 15.6497C11.5564 15.6497 12.4806 14.0532 13.0778 13.0316L16.5471 14.8027ZM28.7787 1.20607H33.4688L27.3569 18.8183H22.8681L16.8315 1.20607H21.5214L25.1633 13.7303L28.7787 1.20607Z" fill="#FCF6F0"/>
</svg>
