<svg width="34" height="34" viewBox="0 0 34 34" fill="none" xmlns="http://www.w3.org/2000/svg">
<path d="M31.1673 17C31.1673 20.9232 29.5726 24.4738 26.9961 27.0392C24.4341 29.5901 20.9015 31.1667 17.0007 31.1667C9.17661 31.1667 2.83398 24.824 2.83398 17C2.83398 13.2186 4.31553 9.78323 6.72982 7.24272C9.31091 4.52665 12.9581 2.83334 17.0007 2.83334C20.9015 2.83334 24.4341 4.40997 26.9961 6.96077C29.5726 9.52617 31.1673 13.0768 31.1673 17Z" stroke="#FCF6F0" stroke-width="4" stroke-linecap="round" stroke-linejoin="round"/>
<path d="M31.1667 17C29.0995 17 23.3971 16.2203 18.2938 18.4614C12.75 20.896 8.7355 24.6723 6.98633 27.0209" stroke="#FCF6F0" stroke-width="4" stroke-linecap="round" stroke-linejoin="round"/>
<path d="M11.6875 3.86316C13.9049 5.90946 18.7427 11.1198 20.5417 16.2917C22.3406 21.4636 23.0073 27.8228 23.4179 29.633" stroke="#FCF6F0" stroke-width="4" stroke-linecap="round" stroke-linejoin="round"/>
<path d="M2.94336 15.2292C5.61928 15.3905 12.7032 15.536 17.2365 13.5999C21.7699 11.6638 25.6709 8.10305 27.0088 6.97369" stroke="#FCF6F0" stroke-width="4" stroke-linecap="round" stroke-linejoin="round"/>
<path d="M3.89648 22.3927C5.14433 25.4217 7.4118 27.9232 10.2715 29.4696" stroke="#FCF6F0" stroke-width="4" stroke-linecap="round" stroke-linejoin="round"/>
<path d="M2.83398 17C2.83398 13.2186 4.31553 9.78321 6.72982 7.24271" stroke="#FCF6F0" stroke-width="4" stroke-linecap="round" stroke-linejoin="round"/>
<path d="M17.0013 2.83334C12.9587 2.83334 9.31156 4.52665 6.73047 7.24272" stroke="#FCF6F0" stroke-width="4" stroke-linecap="round" stroke-linejoin="round"/>
<path d="M22.668 4.01215C24.2924 4.7219 25.758 5.72747 26.9967 6.96078C29.5732 9.52618 31.168 13.0768 31.168 17C31.168 18.7444 30.8527 20.4151 30.276 21.9584" stroke="#FCF6F0" stroke-width="4" stroke-linecap="round" stroke-linejoin="round"/>
<path d="M17 31.1667C20.9009 31.1667 24.4335 29.5901 26.9954 27.0393" stroke="#FCF6F0" stroke-width="4" stroke-linecap="round" stroke-linejoin="round"/>
</svg>
