<svg width="27" height="27" viewBox="0 0 27 27" fill="none" xmlns="http://www.w3.org/2000/svg">
<path d="M24.966 13.8909C24.966 16.9581 23.7192 19.7341 21.7048 21.7397C19.7018 23.734 16.94 24.9666 13.8902 24.9666C7.77324 24.9666 2.81445 20.0079 2.81445 13.8909C2.81445 10.9345 3.97275 8.24867 5.86029 6.26245C7.87823 4.13898 10.7296 2.81512 13.8902 2.81512C16.94 2.81512 19.7018 4.04776 21.7048 6.04202C23.7192 8.0477 24.966 10.8237 24.966 13.8909Z" stroke="#3B2C35" stroke-width="4" stroke-linecap="round" stroke-linejoin="round"/>
<path d="M24.9652 13.8909C23.349 13.8909 18.8908 13.2813 14.9009 15.0335C10.5667 16.9368 7.42808 19.8892 6.06055 21.7254" stroke="#3B2C35" stroke-width="4" stroke-linecap="round" stroke-linejoin="round"/>
<path d="M9.73633 3.62024C11.4699 5.22007 15.2522 9.29365 16.6587 13.3371C18.0651 17.3806 18.5864 22.3523 18.9074 23.7676" stroke="#3B2C35" stroke-width="4" stroke-linecap="round" stroke-linejoin="round"/>
<path d="M2.90039 12.5064C4.99247 12.6325 10.5308 12.7463 14.0751 11.2326C17.6193 9.71897 20.6692 6.93508 21.7152 6.05212" stroke="#3B2C35" stroke-width="4" stroke-linecap="round" stroke-linejoin="round"/>
<path d="M3.64453 18.1069C4.62012 20.475 6.39287 22.4307 8.62862 23.6398" stroke="#3B2C35" stroke-width="4" stroke-linecap="round" stroke-linejoin="round"/>
<path d="M2.81445 13.8909C2.81445 10.9345 3.97275 8.24867 5.86029 6.26245" stroke="#3B2C35" stroke-width="4" stroke-linecap="round" stroke-linejoin="round"/>
<path d="M13.8893 2.81512C10.7287 2.81512 7.87732 4.13898 5.85938 6.26245" stroke="#3B2C35" stroke-width="4" stroke-linecap="round" stroke-linejoin="round"/>
<path d="M18.3203 3.73676C19.5903 4.29165 20.7362 5.07783 21.7046 6.04205C23.719 8.04773 24.9658 10.8237 24.9658 13.8909C24.9658 15.2547 24.7193 16.5609 24.2684 17.7674" stroke="#3B2C35" stroke-width="4" stroke-linecap="round" stroke-linejoin="round"/>
<path d="M13.8906 24.9666C16.9404 24.9666 19.7022 23.734 21.7052 21.7397" stroke="#3B2C35" stroke-width="4" stroke-linecap="round" stroke-linejoin="round"/>
</svg>
