<svg width="27" height="27" viewBox="0 0 27 27" fill="none" xmlns="http://www.w3.org/2000/svg">
<path fill-rule="evenodd" clip-rule="evenodd" d="M10.0292 9.40815H15.043V11.9057C15.7653 10.4693 17.6175 9.17865 20.3999 9.17865C25.7337 9.17865 27 12.038 27 17.284V27H21.6V18.4788C21.6 15.4913 20.8778 13.8065 19.0391 13.8065C16.4889 13.8065 15.4292 15.6222 15.4292 18.4775V27H10.0292V9.40815ZM0.7695 26.7705H6.1695V9.17865H0.7695V26.7705ZM6.94305 3.4425C6.94325 3.89512 6.85349 4.34327 6.67897 4.76089C6.50446 5.17852 6.24868 5.55729 5.9265 5.8752C5.27364 6.52404 4.38994 6.88723 3.4695 6.885C2.55068 6.88438 1.66902 6.52212 1.0152 5.87655C0.694185 5.55756 0.439271 5.17836 0.265064 4.76068C0.090857 4.343 0.000781828 3.89505 0 3.4425C0 2.52855 0.3645 1.65375 1.01655 1.00845C1.6698 0.362014 2.55182 -0.000403934 3.47085 3.37857e-07C4.39155 3.37857e-07 5.27445 0.36315 5.9265 1.00845C6.5772 1.65375 6.94305 2.52855 6.94305 3.4425Z" fill="#FCF6F0"/>
</svg>
