<svg width="23" height="23" viewBox="0 0 23 23" fill="none" xmlns="http://www.w3.org/2000/svg">
<path fill-rule="evenodd" clip-rule="evenodd" d="M8.78628 8.3009H12.7062V10.2535C13.2709 9.13049 14.719 8.12147 16.8943 8.12147C21.0644 8.12147 22.0544 10.3569 22.0544 14.4584V22.0545H17.8326V15.3925C17.8326 13.0568 17.2679 11.7396 15.8304 11.7396C13.8366 11.7396 13.0081 13.1592 13.0081 15.3914V22.0545H8.78628V8.3009ZM1.54692 21.8751H5.76874V8.12147H1.54692V21.8751ZM6.37352 3.63684C6.37367 3.99071 6.30349 4.34108 6.16706 4.66759C6.03062 4.99409 5.83064 5.29023 5.57876 5.53877C5.06834 6.04605 4.37745 6.33 3.65783 6.32825C2.93948 6.32777 2.25018 6.04455 1.73901 5.53983C1.48804 5.29044 1.28874 4.99397 1.15254 4.66742C1.01635 4.34087 0.945924 3.99066 0.945312 3.63684C0.945312 2.9223 1.23029 2.23837 1.74007 1.73386C2.25079 1.22846 2.94038 0.945119 3.65889 0.945435C4.37871 0.945435 5.06897 1.22935 5.57876 1.73386C6.08749 2.23837 6.37352 2.9223 6.37352 3.63684Z" fill="#3B2C35"/>
</svg>
