<svg width="33" height="33" viewBox="0 0 33 33" fill="none" xmlns="http://www.w3.org/2000/svg">
<path d="M18.6234 14.3769C17.4971 13.2511 15.9699 12.6187 14.3774 12.6187C12.785 12.6187 11.2577 13.2511 10.1314 14.3769L5.88404 18.6229C4.75774 19.7492 4.125 21.2768 4.125 22.8696C4.125 24.4624 4.75774 25.99 5.88404 27.1163C7.01033 28.2425 8.53791 28.8753 10.1307 28.8753C11.7235 28.8753 13.2511 28.2425 14.3774 27.1163L16.5004 24.9933" stroke="#4B3015" stroke-width="2" stroke-linecap="round" stroke-linejoin="round"/>
<path d="M14.377 18.6229C15.5032 19.7487 17.0305 20.3812 18.623 20.3812C20.2154 20.3812 21.7427 19.7487 22.869 18.6229L27.1163 14.3769C28.2426 13.2506 28.8754 11.7231 28.8754 10.1302C28.8754 8.53742 28.2426 7.00984 27.1163 5.88355C25.99 4.75726 24.4625 4.12451 22.8696 4.12451C21.2768 4.12451 19.7492 4.75726 18.623 5.88355L16.5 8.00655" stroke="#4B3015" stroke-width="2" stroke-linecap="round" stroke-linejoin="round"/>
</svg>
