<svg width="269" height="100" viewBox="0 0 269 100" fill="none" xmlns="http://www.w3.org/2000/svg">
<path d="M39.3832 67.8314C42.5692 67.8314 46.0494 64.4635 45.3152 61.6726L46.5398 61.0997C48.8459 59.9538 51.6395 58.5952 54.876 56.946C55.0245 56.8765 55.0721 56.7332 55.0721 56.59C55.0721 56.3035 54.974 56.1603 54.8283 56.1603C54.7779 56.1603 54.7302 56.1603 54.7302 56.1603L46.3436 60.3139L45.1695 60.8869C44.7268 59.3809 43.6004 58.0223 41.8351 56.5163C39.7251 54.7976 38.4025 53.3653 38.7444 50.644C39.3832 45.3486 46.6883 40.1187 51.1996 40.1187C53.3068 40.1187 54.2875 41.3382 54.0437 43.4866C53.7972 45.6351 52.6707 47.7098 50.855 49.5718C50.8073 49.6414 50.7093 49.7846 50.7093 49.9278C50.7093 50.1447 50.855 50.2879 51.0035 50.2879C51.0511 50.2879 51.1492 50.2879 51.1996 50.2143C53.1106 48.2827 54.2875 45.9911 54.5817 43.6299C54.9264 40.9085 53.6514 39.333 51.1996 39.333C46.5902 39.333 38.8929 44.7757 38.1559 50.5007C37.7636 53.795 39.4309 55.5137 41.5885 57.2325C43.2081 58.5952 44.2364 59.8843 44.6287 61.0997C38.4025 64.177 37.1276 65.0364 37.1276 66.3255C37.1276 67.3281 38.1083 67.8314 39.3832 67.8314ZM39.3832 67.0416C38.4025 67.0416 37.716 66.6856 37.716 66.3255C37.716 65.683 38.9909 64.7499 44.8249 61.8895C44.8753 62.1023 44.8753 62.2455 44.8753 62.3887C44.8753 64.5371 41.9331 67.0416 39.3832 67.0416Z" fill="black"/>
<path d="M59.1423 62.9616C60.8572 62.9616 65.6123 59.8843 68.1146 57.3757C68.1622 57.3062 68.2127 57.2325 68.2127 57.0893C68.2127 56.8765 68.1146 56.6596 67.9661 56.6596C67.868 56.6596 67.8204 56.6596 67.7699 56.7333C65.2201 59.3114 60.6611 62.1759 59.1423 62.1759C58.2597 62.1759 57.915 61.7462 57.915 60.8132C57.915 59.4546 58.9938 57.6622 59.7308 56.4468C60.2688 55.5138 60.7115 54.5848 60.025 54.5848C59.7308 54.5848 59.0919 55.3705 57.5227 57.2325C55.0233 60.1707 53.5998 61.603 53.0142 61.603C52.9161 61.603 52.8657 61.4598 52.8657 61.2429C52.8657 60.314 53.8464 58.3783 55.5136 56.2299C55.5613 56.1603 55.6117 56.0867 55.6117 55.9435C55.6117 55.7307 55.4632 55.5138 55.3175 55.5138C55.2194 55.5138 55.169 55.5874 55.1213 55.657C53.3084 58.0223 52.2772 60.0275 52.2772 61.3166C52.2772 61.959 52.5714 62.3887 53.0142 62.3887C53.796 62.3887 55.2194 61.0301 57.8674 57.8791C58.4558 57.2325 58.4054 57.3757 58.0635 58.0919C57.6712 59.0249 57.377 59.9538 57.377 60.8132C57.377 62.2455 57.9655 62.9616 59.1423 62.9616Z" fill="black"/>
<path d="M65.466 62.9618C65.6621 62.9618 66.1049 62.3889 66.6933 61.816C68.6043 59.8108 72.4768 55.6572 74.046 55.6572C74.2421 55.6572 74.2926 55.8741 74.2926 56.0173C74.2926 56.3733 74.0964 57.5191 73.9003 58.5217C73.7518 59.4548 73.606 60.3837 73.606 60.8134C73.606 61.6728 74.046 62.1761 74.7325 62.1761C76.4978 62.1761 79.5857 60.3141 82.5783 57.4496C82.6764 57.3759 82.724 57.2327 82.724 57.0895C82.724 56.8767 82.5783 56.7334 82.4298 56.7334H82.2841C79.3419 59.598 76.3521 61.3863 74.7325 61.3863C74.3402 61.3863 74.1945 61.1735 74.1945 60.8134C74.1945 60.4574 74.2926 59.6676 74.4887 58.7386C74.6344 57.6624 74.8306 56.5165 74.8306 55.8741C74.8306 55.2275 74.5363 54.8715 74.046 54.8715C72.771 54.8715 70.4677 56.803 66.5952 60.8871C66.3487 61.0999 66.301 60.8134 66.3991 60.6006C67.4751 58.3785 69.5851 54.7978 71.5465 52.6494C71.5942 52.5798 71.6446 52.4366 71.6446 52.2933C71.6446 52.0765 71.5465 51.9332 71.398 51.9332C71.2999 51.9332 71.2523 51.9332 71.2019 52.0069C68.3577 55.1579 65.2222 61.2431 65.0737 62.1761C65.0261 62.6058 65.1718 62.9618 65.466 62.9618Z" fill="black"/>
<path d="M79.9295 62.9618C80.1256 62.9618 80.5684 62.3889 81.1568 61.816C83.0678 59.8108 86.9403 55.6572 88.5095 55.6572C88.7056 55.6572 88.7561 55.8741 88.7561 56.0173C88.7561 56.3733 88.5599 57.5191 88.3638 58.5217C88.2153 59.4548 88.0696 60.3837 88.0696 60.8134C88.0696 61.6728 88.5095 62.1761 89.196 62.1761C90.9613 62.1761 94.0492 60.3141 97.0418 57.4496C97.1399 57.3759 97.1875 57.2327 97.1875 57.0895C97.1875 56.8767 97.0418 56.7334 96.8933 56.7334H96.7476C93.8054 59.598 90.8156 61.3863 89.196 61.3863C88.8037 61.3863 88.658 61.1735 88.658 60.8134C88.658 60.4574 88.7561 59.6676 88.9522 58.7386C89.0979 57.6624 89.2941 56.5165 89.2941 55.8741C89.2941 55.2275 88.9998 54.8715 88.5095 54.8715C87.2345 54.8715 84.9312 56.803 81.0587 60.8871C80.8122 61.0999 80.7645 60.8134 80.8626 60.6006C81.9386 58.3785 84.0486 54.7978 86.01 52.6494C86.0577 52.5798 86.1081 52.4366 86.1081 52.2933C86.1081 52.0765 86.01 51.9332 85.8615 51.9332C85.7634 51.9332 85.7158 51.9332 85.6654 52.0069C82.8213 55.1579 79.6857 61.2431 79.5372 62.1761C79.4896 62.6058 79.6353 62.9618 79.9295 62.9618Z" fill="black"/>
<path d="M102.385 63.0313C104.102 63.0313 108.611 60.3141 111.357 57.4495C111.407 57.3758 111.455 57.2326 111.455 57.0893C111.455 56.8765 111.357 56.7333 111.211 56.7333C111.113 56.7333 111.063 56.7333 111.015 56.8029C108.269 59.8107 103.906 62.176 102.385 62.176C101.552 62.176 101.16 61.8159 101.16 60.887C101.16 59.5242 101.945 57.8055 102.533 56.5901C102.875 55.8739 103.071 55.4442 103.071 55.1578C103.071 54.8713 102.925 54.6544 102.729 54.6544C102.483 54.6544 101.894 55.2273 100.866 56.3732C100.572 55.5875 100.227 55.301 99.4929 55.301C97.8256 55.301 93.4124 59.3114 93.4124 61.7464C93.4124 62.4625 93.757 62.8922 94.295 62.8922C95.668 62.8922 98.7083 59.5979 100.768 57.4495C101.16 57.0198 101.502 56.6596 101.749 56.4468C101.847 56.3036 101.992 56.3732 101.847 56.5901C101.258 57.8791 100.619 59.4547 100.619 60.887C100.619 62.3193 101.208 63.0313 102.385 63.0313ZM94.295 62.0328C94.0512 62.0328 93.9532 61.9592 93.9532 61.7464C93.9532 60.0276 97.8256 56.0867 99.4929 56.0867C100.031 56.0867 100.179 56.23 100.376 56.8029C98.3636 59.025 95.4719 62.0328 94.295 62.0328Z" fill="black"/>
<path d="M122.193 69.4766C122.437 69.407 122.535 68.6909 122.633 68.0443C122.683 67.7579 122.633 67.6146 122.585 67.6146C122.927 66.3992 123.468 65.0365 124.154 63.3914C124.692 63.6042 125.233 63.6779 125.822 63.6779C132.931 63.6779 139.451 55.4443 139.451 48.9254C139.451 45.848 137.834 44.0597 135.088 44.0597C134.99 44.0597 134.842 44.1293 134.696 44.1293C135.43 43.0571 136.117 42.1241 136.705 41.4816C136.803 41.4079 136.803 41.2647 136.803 41.1215C136.803 40.9087 136.705 40.6918 136.559 40.6918C136.461 40.6918 136.411 40.7654 136.363 40.835C135.626 41.6248 134.794 42.8402 133.861 44.2029C129.106 44.9191 123.418 49.4287 120.82 54.7282C120.82 54.7977 120.772 54.8714 120.772 55.0146C120.772 55.2274 120.918 55.3706 121.064 55.3706C121.162 55.3706 121.26 55.3011 121.31 55.2274C123.664 50.3577 128.812 46.1345 133.225 45.1319C130.039 50.0016 126.262 57.0198 123.908 62.4625C122.88 62.1024 122.044 61.3862 121.75 60.6005C121.703 60.4573 121.605 60.3836 121.506 60.3836C121.358 60.3836 121.212 60.5269 121.212 60.7438C121.212 60.8133 121.212 60.887 121.26 60.9566C121.605 61.8896 122.487 62.749 123.566 63.1746C122.781 65.1798 122.143 66.8985 121.848 68.1876C121.75 68.6172 121.703 68.9774 121.75 69.1902C121.848 69.4766 121.997 69.5503 122.193 69.4766ZM125.822 62.8922C125.379 62.8922 124.889 62.8185 124.449 62.6753C126.9 57.0198 130.919 49.7152 134.107 44.9886C134.449 44.9191 134.794 44.9191 135.088 44.9191C137.54 44.9191 138.863 46.2777 138.863 48.9254C138.863 55.0842 132.734 62.8922 125.822 62.8922Z" fill="black"/>
<path d="M144.157 50.9304C144.208 50.9304 144.306 50.8609 144.354 50.7872C144.698 50.2879 145.04 49.6414 145.385 49.0684C145.727 48.426 146.021 47.7835 146.267 47.1369C146.315 47.0673 146.315 46.9937 146.315 46.9241C146.315 46.7072 146.217 46.564 146.071 46.564C145.923 46.564 145.875 46.6376 145.825 46.7072C145.53 47.3538 145.287 47.9267 144.942 48.4996C144.6 49.1421 144.255 49.715 143.914 50.2143C143.863 50.2879 143.863 50.3575 143.863 50.5007C143.863 50.7176 143.961 50.9304 144.157 50.9304Z" fill="black"/>
<path d="M141.118 63.5346C142.687 63.5346 144.206 59.6674 143.912 56.8765C143.912 56.7333 143.962 56.59 144.06 56.7333C146.904 59.3114 150.679 59.5979 153.229 57.4494C153.327 57.3758 153.425 57.2325 153.425 57.0893C153.425 56.8765 153.276 56.7333 153.131 56.7333H152.982C150.631 58.7385 147.199 58.452 144.551 56.1604C144.453 56.0867 144.453 56.0171 144.551 55.9435C144.598 55.8739 144.696 55.8739 144.747 55.8002C144.892 55.8002 144.943 55.657 144.943 55.4442C144.943 55.2273 144.845 55.0145 144.696 55.0145C144.649 55.0145 144.598 55.0145 144.598 55.0841C144.354 55.1578 144.108 55.301 143.912 55.4442C143.814 55.5138 143.814 55.5138 143.716 55.4442C143.519 55.3706 143.323 55.5874 143.225 55.8739C143.225 55.9435 143.178 55.9435 143.178 56.0171C141.46 57.519 140.188 59.8843 140.188 61.8895C140.188 62.8921 140.53 63.5346 141.118 63.5346ZM141.118 62.7489C140.874 62.7489 140.726 62.4624 140.726 61.8895C140.726 60.2403 141.852 58.1656 143.374 56.8028C143.617 59.0945 142.295 62.7489 141.118 62.7489Z" fill="black"/>
<path d="M152.639 70.6962C155.581 70.6962 164.114 62.6058 169.017 57.4495C169.065 57.3759 169.115 57.2326 169.115 57.0894C169.115 56.8766 169.017 56.7334 168.821 56.7334C168.771 56.7334 168.723 56.7334 168.673 56.803C163.819 61.9592 155.435 69.8368 152.639 69.8368C152.051 69.8368 151.857 69.5503 151.857 68.8342C151.857 66.7553 154.357 63.1746 156.758 59.7412C158.868 56.6597 160.975 53.6519 160.975 51.9332C160.975 51.0738 160.289 50.5009 159.456 49.3551C161.32 46.4209 162.69 43.7732 162.69 42.7706C162.69 42.2673 162.494 41.9113 162.152 41.9113C160.633 41.9113 157.201 45.7048 157.201 47.4972C157.201 48.1397 157.691 48.6389 158.574 49.4983C156.954 52.0068 154.895 54.7282 152.933 56.803C152.886 56.8766 152.835 57.0199 152.835 57.0894C152.835 57.3759 152.933 57.5191 153.082 57.5191C153.18 57.5191 153.227 57.5191 153.278 57.4495C155.043 55.5876 157.248 52.723 159.064 49.928C160.045 50.9306 160.387 51.4339 160.387 51.9332C160.387 53.2959 158.476 56.0868 156.366 59.0946C153.964 62.6058 151.316 66.3993 151.316 68.8342C151.316 69.98 151.709 70.6962 152.639 70.6962ZM158.966 48.9254C158.083 48.0701 157.789 47.6404 157.789 47.4972C157.789 46.2777 160.583 43.2003 161.905 42.8402C162.054 42.7706 162.152 42.9139 162.102 43.1267C161.76 44.3461 159.994 47.3539 158.966 48.9254Z" fill="black"/>
<path d="M167.545 66.3992C169.162 66.3992 171.272 63.8906 172.253 61.8158L172.398 61.6726C173.673 61.0997 175.242 60.3835 176.91 59.6674C178.577 58.9512 180.342 58.2351 181.813 57.5189C181.959 57.4493 182.009 57.3061 182.009 57.0892C182.009 56.8764 181.911 56.7332 181.763 56.7332H181.665C180.194 57.4493 178.428 58.1655 176.764 58.8816C175.391 59.4546 174.018 60.0971 172.841 60.6004C172.791 60.67 172.743 60.6004 172.743 60.4572C172.791 60.3139 172.791 60.1707 172.841 60.0971C172.841 59.3809 172.496 59.0944 171.908 59.0944C171.516 59.0944 171.025 59.2377 170.487 59.3809C169.946 59.5241 169.358 59.6674 168.918 59.6674C168.475 59.6674 168.33 59.5241 168.33 59.3113C168.33 57.6621 170.88 54.7976 172.351 54.7976C172.594 54.7976 172.645 54.9408 172.645 55.1577C172.645 55.6569 172.202 56.4467 171.86 56.7332C171.762 56.8028 171.712 56.946 171.712 57.0892C171.712 57.3757 171.86 57.5189 172.006 57.5189C172.056 57.5189 172.104 57.5189 172.155 57.4493C172.594 57.0892 173.037 56.2299 173.183 55.3705C173.233 55.3009 173.233 55.1577 173.233 55.084C173.233 54.4415 172.889 54.0118 172.351 54.0118C170.585 54.0118 167.741 57.2325 167.741 59.3113C167.741 60.0971 168.181 60.4572 168.918 60.4572C169.408 60.4572 169.997 60.3139 170.585 60.1707C170.978 60.0971 172.202 59.8106 172.253 60.0275C172.351 60.2403 172.155 60.6004 172.006 60.9564C172.006 61.0301 171.958 61.0301 171.908 61.0301C169.946 62.1023 166.713 64.1075 166.713 65.4661C166.713 66.1127 167.007 66.3992 167.545 66.3992ZM167.545 65.5398C167.301 65.5398 167.251 65.5398 167.251 65.3965C167.251 65.0364 168.966 63.6041 171.025 62.3887C171.174 62.3887 171.221 62.4624 171.123 62.6056C170.143 64.1075 168.672 65.5398 167.545 65.5398Z" fill="black"/>
<path d="M185.587 63.0311C187.451 63.0311 191.814 60.8131 195.148 57.4493C195.246 57.3756 195.297 57.2324 195.297 57.0892C195.297 56.8764 195.198 56.6595 195.002 56.6595C194.952 56.6595 194.904 56.7331 194.854 56.7331C191.617 60.0274 187.353 62.1758 185.587 62.1758C184.755 62.1758 184.363 61.8157 184.363 60.8868C184.363 60.2402 184.853 58.9511 185.587 57.1628C185.587 57.1628 185.587 57.1628 185.587 57.2324C185.587 57.4493 185.736 57.6621 185.882 57.6621C186.03 57.6621 186.128 57.5189 186.176 57.3061C186.176 56.8764 186.128 56.5163 186.03 56.2298L186.96 54.2246C194.265 44.3459 204.316 29.0204 204.316 27.1584C204.316 26.5855 204.073 26.2295 203.63 26.2295C201.865 26.2295 191.766 43.0568 186.717 53.4389C186.226 54.0814 185.783 54.6543 185.344 55.3009C185.147 55.084 184.853 55.0144 184.559 55.0144C182.351 55.0144 178.921 59.2376 178.921 61.8894C178.921 62.5319 179.215 62.892 179.557 62.892C180.392 62.892 182.205 60.6003 184.755 57.1628C184.951 56.9459 185.049 57.0892 184.901 57.3756C184.214 59.0248 183.822 60.2402 183.822 60.8868C183.822 62.3191 184.461 63.0311 185.587 63.0311ZM188.922 50.3574C194.218 40.2618 202.307 27.0152 203.63 27.0152C203.778 27.0152 203.778 27.0889 203.778 27.1584C203.778 28.5212 195.736 40.7652 188.922 50.3574ZM179.655 62.0326C179.608 62.0326 179.51 62.0326 179.51 61.8157C179.51 59.6673 182.696 55.8738 184.559 55.8738H184.901C182.155 59.5977 180.146 62.0326 179.655 62.0326Z" fill="black"/>
<path d="M197.501 54.2248H197.599C198.58 53.6519 199.709 51.7204 199.953 51.0738C199.953 51.0042 200.003 50.9305 200.003 50.861C200.003 50.6441 199.855 50.5009 199.709 50.5009C199.658 50.5009 199.56 50.5745 199.513 50.7177C199.317 51.2907 198.238 52.8662 197.403 53.5087C197.305 53.5823 197.207 53.7256 197.207 53.8688C197.207 54.0816 197.355 54.2248 197.501 54.2248ZM193.628 63.5347C195.197 63.5347 196.716 59.6675 196.422 56.8766C196.422 56.7334 196.472 56.5902 196.57 56.7334C199.415 59.3115 203.189 59.598 205.739 57.4495C205.837 57.3759 205.935 57.2326 205.935 57.0894C205.935 56.8766 205.787 56.7334 205.641 56.7334H205.492C203.141 58.7386 199.709 58.4521 197.061 56.1605C196.963 56.0868 196.963 56.0172 197.061 55.9436C197.108 55.874 197.207 55.874 197.257 55.8003C197.403 55.8003 197.453 55.6571 197.453 55.4443C197.453 55.2274 197.355 55.0146 197.207 55.0146C197.159 55.0146 197.108 55.0146 197.108 55.0842C196.865 55.1579 196.618 55.3011 196.422 55.4443C196.324 55.5139 196.324 55.5139 196.226 55.4443C196.03 55.3707 195.834 55.5875 195.735 55.874C195.735 55.9436 195.688 55.9436 195.688 56.0172C193.97 57.5191 192.698 59.8844 192.698 61.8896C192.698 62.8923 193.04 63.5347 193.628 63.5347ZM193.628 62.749C193.385 62.749 193.236 62.4626 193.236 61.8896C193.236 60.2405 194.362 58.1657 195.884 56.803C196.128 59.0946 194.805 62.749 193.628 62.749Z" fill="black"/>
<path d="M194.168 81.1477C194.415 81.1477 194.706 80.5747 194.953 80.0018C195.051 79.789 195.051 79.5721 194.953 79.5026C199.61 68.8341 205.542 57.6622 211.622 47.2802C215.887 46.9937 220.253 46.9937 224.419 47.2106C224.615 47.2106 224.713 47.0674 224.713 46.8505C224.713 46.6377 224.615 46.4208 224.467 46.4208C220.398 46.208 216.232 46.208 212.163 46.4208C214.808 41.9111 217.456 37.5406 220.104 33.3911C220.154 33.3174 220.154 33.1742 220.154 33.1046C220.154 32.8877 220.056 32.6749 219.86 32.6749C219.81 32.6749 219.712 32.7445 219.664 32.8182C216.918 37.1846 214.124 41.7679 211.378 46.4945C206.965 46.7073 202.7 47.2106 198.875 47.9268C198.727 47.9963 198.629 48.1395 198.629 48.3564C198.629 48.5692 198.777 48.782 198.923 48.782H198.974C202.602 48.07 206.671 47.5666 210.888 47.2802C204.709 57.8791 198.777 69.1205 194.07 79.9323C194.022 80.0755 193.972 80.2187 193.924 80.3619L193.874 80.4315C193.776 80.8612 193.826 81.1477 194.168 81.1477Z" fill="black"/>
<path d="M201.473 81.1477C201.72 81.1477 202.011 80.5747 202.258 80.0018C202.356 79.789 202.356 79.5721 202.258 79.5026C206.915 68.8341 212.847 57.6622 218.927 47.2802C223.192 46.9937 227.558 46.9937 231.725 47.2106C231.921 47.2106 232.019 47.0674 232.019 46.8505C232.019 46.6377 231.921 46.4208 231.772 46.4208C227.704 46.208 223.537 46.208 219.468 46.4208C222.113 41.9111 224.761 37.5406 227.409 33.3911C227.46 33.3174 227.46 33.1742 227.46 33.1046C227.46 32.8877 227.362 32.6749 227.166 32.6749C227.115 32.6749 227.017 32.7445 226.969 32.8182C224.223 37.1846 221.43 41.7679 218.684 46.4945C214.27 46.7073 210.006 47.2106 206.181 47.9268C206.032 47.9963 205.934 48.1395 205.934 48.3564C205.934 48.5692 206.083 48.782 206.228 48.782H206.279C209.908 48.07 213.976 47.5666 218.193 47.2802C212.015 57.8791 206.083 69.1205 201.375 79.9323C201.328 80.0755 201.277 80.2187 201.229 80.3619L201.179 80.4315C201.081 80.8612 201.131 81.1477 201.473 81.1477Z" fill="black"/>
<path d="M222.654 53.7254C222.752 53.7254 222.8 53.7254 222.851 53.5822L223.047 53.2957C223.192 52.9356 223.389 52.5796 223.487 52.4364C223.537 52.3627 223.537 52.2195 223.537 52.1499C223.537 51.933 223.439 51.7202 223.29 51.7202C223.192 51.7202 223.094 51.7898 223.047 51.8634C222.949 52.0762 222.752 52.5059 222.604 52.7924L222.408 53.0788C222.36 53.1525 222.36 53.2221 222.36 53.3653C222.36 53.5822 222.506 53.7254 222.654 53.7254ZM219.516 63.3913C221.183 63.3913 226.331 59.8842 228.979 57.4494C229.026 57.3757 229.077 57.2325 229.077 57.0892C229.077 56.8764 228.979 56.7332 228.783 56.7332H228.637C226.087 59.1681 221.035 62.5319 219.516 62.5319C218.978 62.5319 218.731 62.2455 218.731 61.5293C218.731 60.5267 219.908 58.0918 221.576 55.5874C221.623 55.5137 221.674 55.4442 221.674 55.3009C221.674 55.084 221.525 54.9408 221.379 54.9408C221.281 54.9408 221.231 54.9408 221.183 55.0145C219.368 57.7358 218.193 60.1707 218.193 61.5293C218.193 62.6752 218.684 63.3913 219.516 63.3913Z" fill="black"/>
<path d="M228.339 70.6962C231.281 70.6962 239.814 62.6058 244.717 57.4495C244.765 57.3759 244.815 57.2326 244.815 57.0894C244.815 56.8766 244.717 56.7334 244.521 56.7334C244.471 56.7334 244.423 56.7334 244.373 56.803C239.519 61.9592 231.136 69.8368 228.339 69.8368C227.751 69.8368 227.557 69.5503 227.557 68.8342C227.557 66.7553 230.057 63.1746 232.458 59.7412C234.568 56.6597 236.675 53.6519 236.675 51.9332C236.675 51.0738 235.989 50.5009 235.157 49.3551C237.02 46.4209 238.39 43.7732 238.39 42.7706C238.39 42.2673 238.194 41.9113 237.852 41.9113C236.334 41.9113 232.901 45.7048 232.901 47.4972C232.901 48.1397 233.391 48.6389 234.274 49.4983C232.654 52.0068 230.595 54.7282 228.633 56.803C228.586 56.8766 228.535 57.0199 228.535 57.0894C228.535 57.3759 228.633 57.5191 228.782 57.5191C228.88 57.5191 228.928 57.5191 228.978 57.4495C230.743 55.5876 232.949 52.723 234.764 49.928C235.745 50.9306 236.087 51.4339 236.087 51.9332C236.087 53.2959 234.176 56.0868 232.066 59.0946C229.665 62.6058 227.017 66.3993 227.017 68.8342C227.017 69.98 227.409 70.6962 228.339 70.6962ZM234.666 48.9254C233.784 48.0701 233.489 47.6404 233.489 47.4972C233.489 46.2777 236.283 43.2003 237.606 42.8402C237.754 42.7706 237.852 42.9139 237.802 43.1267C237.46 44.3461 235.695 47.3539 234.666 48.9254Z" fill="black"/>
</svg>
