<svg width="28" height="28" viewBox="0 0 28 28" fill="none" xmlns="http://www.w3.org/2000/svg">
<path d="M13.5371 18.2422C13.0289 19.0595 12.5414 19.859 11.4489 20.6357C10.8645 21.0549 9.51942 21.8739 7.6075 21.8739C3.95982 21.8739 1.01562 19.1602 1.01562 14.3894C1.01562 10.2198 3.78517 6.92609 7.68527 6.92609C9.26533 6.92609 10.6692 7.48501 11.703 8.32349C12.659 9.10177 13.1068 9.88026 13.4974 10.579L10.7676 11.9747C10.5723 11.5165 10.3372 11.0371 9.73379 10.5188C9.07007 9.97929 8.40781 9.82007 7.84087 9.82007C5.61771 9.82007 4.44733 11.9358 4.44733 14.2903C4.44733 17.3842 5.98928 18.9197 7.84087 18.9197C9.6353 18.9197 10.3578 17.6425 10.8248 16.8252L13.5371 18.2422ZM23.1 7.36485H26.7668L21.9884 21.4547H18.4789L13.7594 7.36485H17.4261L20.2734 17.3842L23.1 7.36485Z" fill="#3B2C35"/>
</svg>
