<svg width="32" height="32" viewBox="0 0 32 32" fill="none" xmlns="http://www.w3.org/2000/svg">
<path d="M23.3727 19.4752C23.3727 20.8192 23.7551 21.3552 24.7551 21.3552C26.9839 21.3552 28.4031 18.5152 28.4031 13.792C28.4031 6.57279 23.1423 3.11679 16.5743 3.11679C9.81752 3.11679 3.67192 7.64799 3.67192 16.2112C3.67192 24.3904 9.04792 28.8448 17.3039 28.8448C20.1071 28.8448 21.9887 28.5376 24.8671 27.5776L25.4847 30.1488C22.6431 31.072 19.6063 31.3392 17.2655 31.3392C6.43672 31.3392 0.636719 25.3872 0.636719 16.2096C0.636719 6.95519 7.35832 0.657593 16.6127 0.657593C26.2511 0.657593 31.3567 6.41759 31.3567 13.4832C31.3567 19.4736 29.4767 24.0432 23.5631 24.0432C20.8735 24.0432 19.1087 22.968 18.8783 20.5856C18.1871 23.2352 16.3439 24.0432 13.8463 24.0432C10.5055 24.0432 7.70232 21.4688 7.70232 16.2864C7.70232 11.064 10.1615 7.83839 14.5775 7.83839C16.9199 7.83839 18.3791 8.75999 19.0287 10.2192L20.1439 8.18399H23.3695V19.4752H23.3727ZM18.6511 14.4064C18.6511 12.296 17.0751 11.4112 15.7695 11.4112C14.3487 11.4112 12.7759 12.5616 12.7759 15.9424C12.7759 18.6304 13.9663 20.128 15.7695 20.128C17.0367 20.128 18.6511 19.3216 18.6511 17.0944V14.4064Z" fill="#FCF6F0"/>
</svg>
