<svg width="26" height="26" viewBox="0 0 26 26" fill="none" xmlns="http://www.w3.org/2000/svg">
<g clip-path="url(#clip0_317_12187)">
<path d="M18.2735 15.5801C18.2735 16.6553 18.5724 17.0841 19.3543 17.0841C21.0968 17.0841 22.2063 14.8121 22.2063 11.0336C22.2063 5.25822 18.0933 2.49342 12.9584 2.49342C7.67576 2.49342 2.87102 6.11838 2.87102 12.9689C2.87102 19.5123 7.07408 23.0758 13.5288 23.0758C15.7204 23.0758 17.1914 22.8301 19.4418 22.0621L19.9247 24.119C17.7031 24.8576 15.3288 25.0713 13.4987 25.0713C5.03259 25.0713 0.498047 20.3097 0.498047 12.9677C0.498047 5.56414 5.75312 0.526062 12.9884 0.526062C20.5239 0.526062 24.5155 5.13406 24.5155 10.7865C24.5155 15.5789 23.0457 19.2345 18.4223 19.2345C16.3195 19.2345 14.9398 18.3744 14.7597 16.4685C14.2193 18.5881 12.7782 19.2345 10.8256 19.2345C8.21366 19.2345 6.02206 17.175 6.02206 13.0291C6.02206 8.85118 7.94471 6.2707 11.3972 6.2707C13.2286 6.2707 14.3694 7.00798 14.8772 8.17534L15.7491 6.54718H18.271V15.5801H18.2735V15.5801ZM14.582 11.5251C14.582 9.83678 13.3499 9.12894 12.3291 9.12894C11.2183 9.12894 9.98869 10.0493 9.98869 12.7539C9.98869 14.9043 10.9194 16.1024 12.3291 16.1024C13.3199 16.1024 14.582 15.4573 14.582 13.6755V11.5251Z" fill="#3B2C35"/>
</g>
<defs>
<clipPath id="clip0_317_12187">
<rect width="25.0182" height="25.6" fill="white"/>
</clipPath>
</defs>
</svg>
